<svg width="113" height="32" viewBox="0 0 113 32" fill="none" xmlns="http://www.w3.org/2000/svg">
<g clip-path="url(#clip0_567_18935)">
<path d="M92.9533 10.6905C91.4788 9.31734 89.7064 8.63074 87.6027 8.63074C85.4751 8.63074 83.6692 9.31734 82.1849 10.6905C80.7046 12.0652 79.9746 13.8401 79.9746 15.9861C79.9746 18.1321 80.7162 19.9085 82.1908 21.2978C83.6653 22.6871 85.4814 23.3561 87.6085 23.3561C89.7123 23.3561 91.4846 22.671 92.9591 21.2978C94.4337 19.9246 95.1578 18.1482 95.1578 15.9861C95.1578 13.8241 94.4278 12.0652 92.9533 10.6905ZM90.3634 19.0174C89.5502 19.7931 88.6334 20.1861 87.6027 20.1861C86.5492 20.1885 85.5371 19.7761 84.785 19.0379C83.9719 18.2665 83.5558 17.2498 83.5558 15.9905C83.5558 14.7313 83.9719 13.732 84.7923 12.9505C85.546 12.2152 86.5574 11.8046 87.61 11.8066C88.6407 11.8066 89.5575 12.1938 90.3707 12.9651C91.1839 13.7364 91.5751 14.7561 91.5751 15.9861C91.5751 17.2162 91.1664 18.2344 90.3634 19.0189V19.0174Z" fill="#FF5000"/>
<path d="M99.8745 22.9909H96.3984V15.9233C96.3984 14.0249 97.1521 12.2041 98.4937 10.8617C99.8352 9.5193 101.655 8.76514 103.552 8.76514H105.002V12.2493H103.552C102.578 12.25 101.644 12.6372 100.955 13.3259C100.265 14.0146 99.8768 14.9486 99.8745 15.9233V22.9909Z" fill="#FF5000"/>
<path d="M71.9985 8.62927C71.0939 8.62854 70.1985 8.81179 69.3668 9.16788C68.5351 9.52398 67.7844 10.0455 67.1603 10.7008C66.2376 9.73231 65.046 9.06275 63.7393 8.77847C62.4326 8.49418 61.0708 8.6082 59.8295 9.10583C58.5882 9.60345 57.5244 10.4618 56.7753 11.5703C56.0262 12.6787 55.6262 13.9863 55.627 15.3244V22.9909H59.3337V14.7911C59.3509 14.0105 59.673 13.2676 60.2309 12.7215C60.7888 12.1755 61.5381 11.8698 62.3185 11.8698C63.0989 11.8698 63.8482 12.1755 64.4061 12.7215C64.964 13.2676 65.286 14.0105 65.3033 14.7911V22.9909H69.01V14.7911C69.01 13.9992 69.3244 13.2397 69.8841 12.6797C70.4437 12.1198 71.2027 11.8052 71.9941 11.8052C72.7855 11.8052 73.5446 12.1198 74.1042 12.6797C74.6638 13.2397 74.9782 13.9992 74.9782 14.7911V22.9909H78.6864V15.3244C78.6864 13.5492 77.9819 11.8467 76.7277 10.5912C75.4736 9.33576 73.7725 8.63004 71.9985 8.62927Z" fill="#FF5000"/>
<path d="M38.2757 2.75372H34.6172V22.9895H38.2757V2.75372Z" fill="#FF5000"/>
<path d="M51.148 16.6537C51.0166 18.0868 50.2312 19.1372 48.7844 19.8179C48.0295 20.1784 47.1648 20.2344 46.3697 19.9743C45.4902 19.6974 44.7325 19.1264 44.2236 18.3571L53.8796 13.8065L53.3365 12.6627C52.3778 10.8064 50.9889 9.56227 49.1699 8.93021C48.3079 8.62168 47.393 8.48859 46.4789 8.53876C45.5649 8.58894 44.67 8.82136 43.847 9.22238C42.0031 10.0989 40.7461 11.4546 40.0891 13.3128C39.4322 15.171 39.5446 17.092 40.4716 19.051C41.3987 21.01 42.7783 22.3277 44.6222 23.0041C46.4661 23.6804 48.3129 23.5621 50.1436 22.6871C51.4678 22.0962 52.598 21.1425 53.4036 19.9363C54.038 18.9555 54.3952 17.8212 54.4372 16.6537H51.148ZM43.5798 13.6692C43.9618 13.0035 44.5365 12.4692 45.2281 12.1368C45.898 11.8125 46.6525 11.7063 47.3858 11.8329C48.1158 11.979 48.7567 12.3764 49.329 13.0673L43.2075 15.9569C43.0306 15.1749 43.164 14.3547 43.5798 13.6692Z" fill="#FF5000"/>
<path d="M17.7158 19.5988C17.3053 19.7398 16.8752 19.8147 16.4413 19.8208C15.0962 19.8208 14.4236 19.0266 14.4236 17.4382V11.5699H18.1056V8.78264H14.4236V3.99542H10.7738V8.78264H8V11.5699H10.7651V17.7158C10.7651 19.5662 11.2449 20.9467 12.2046 21.8573C13.1642 22.7679 14.4932 23.2246 16.1916 23.2276C17.0427 23.2276 18.1683 22.8974 19.218 22.4416L17.7158 19.5988Z" fill="#FF5000"/>
<path d="M29.9755 16.6537C29.8295 18.0868 29.0484 19.1372 27.6177 19.8179C26.857 20.1783 25.9874 20.2343 25.1869 19.9742C24.3562 19.7186 23.6409 19.1898 23.0554 18.3571L32.7084 13.8065L32.1639 12.6627C31.212 10.8103 29.8061 9.55981 27.99 8.93018C27.1305 8.6218 26.218 8.48877 25.3063 8.53895C24.3946 8.58913 23.5022 8.8215 22.6817 9.22235C20.8383 10.0862 19.5798 11.4487 18.9063 13.3098C18.2479 15.1695 18.3793 17.092 19.2932 19.0481C20.2071 21.0041 21.6086 22.3247 23.4569 23.0011C25.3052 23.6775 27.1447 23.5592 28.9637 22.6841C30.2926 22.0977 31.4269 21.1445 32.2339 19.9363C32.8584 18.9533 33.2111 17.822 33.2559 16.6581L29.9755 16.6537ZM22.3985 13.6692C22.7875 13.0048 23.3653 12.4714 24.0584 12.1368C24.7286 11.8119 25.4838 11.7057 26.2176 11.8329C26.9476 11.979 27.5885 12.3763 28.1608 13.0673L22.0393 15.9583C21.8643 15.1773 21.9927 14.359 22.3985 13.6692Z" fill="#FF5000"/>
<path d="M101.055 8.76512C101.269 7.24291 101.091 5.83465 100.471 4.59731C97.0748 -2.13869 81.8376 -1.36298 65.9785 6.19694C66.5489 6.05865 67.1192 5.92522 67.6895 5.79667C82.4552 2.51705 95.8295 3.9297 101.055 8.76512Z" fill="#FF5000"/>
<path d="M52.4874 23.2276C52.2728 24.7498 52.4509 26.1581 53.0713 27.3954C56.47 34.1387 71.7043 33.363 87.5663 25.8031C87.0008 25.9424 86.4305 26.0758 85.8553 26.2034C71.0955 29.483 57.7124 28.0703 52.4874 23.2276Z" fill="#FF5000"/>
<path d="M29.3348 27.3179C28.9041 26.9191 28.3128 26.7161 27.5901 26.7161H26.0879V31.0533H27.5901C28.3201 31.0533 28.9041 30.8547 29.3348 30.4529C29.5511 30.2532 29.7218 30.0092 29.8352 29.7374C29.9486 29.4656 30.002 29.1725 29.9917 28.8781C30.002 28.5859 29.9486 28.295 29.8351 28.0256C29.7217 27.7561 29.5509 27.5147 29.3348 27.3179ZM28.834 29.9942C28.542 30.2864 28.1201 30.4237 27.5901 30.4237H26.777V27.3486H27.5901C28.0424 27.3253 28.4867 27.4741 28.834 27.765C29.1279 28.062 29.2927 28.4631 29.2927 28.881C29.2927 29.299 29.1279 29.7001 28.834 29.9971V29.9942Z" fill="#FF5000"/>
<path d="M31.2536 26.5773C31.2116 26.5374 31.1617 26.5066 31.1072 26.487C31.0526 26.4674 30.9946 26.4593 30.9368 26.4634C30.8828 26.4605 30.8288 26.4691 30.7785 26.4888C30.7281 26.5084 30.6826 26.5386 30.6448 26.5773C30.6034 26.6156 30.5705 26.662 30.5479 26.7137C30.5253 26.7654 30.5137 26.8211 30.5137 26.8775C30.5137 26.9339 30.5253 26.9897 30.5479 27.0413C30.5705 27.093 30.6034 27.1394 30.6448 27.1777C30.7247 27.2504 30.8287 27.291 30.9368 27.2917C31.0528 27.2937 31.1655 27.2532 31.2536 27.1777C31.3269 27.0949 31.3673 26.9881 31.3673 26.8775C31.3673 26.7669 31.3269 26.6601 31.2536 26.5773ZM30.6112 27.8351V31.0563H31.2828V27.8351H30.6112Z" fill="#FF5000"/>
<path d="M34.785 28.2807C34.6216 28.1046 34.422 27.966 34.2 27.8745C33.9779 27.783 33.7387 27.7406 33.4988 27.7504C32.9411 27.7504 32.5674 27.9067 32.2549 28.2369C31.9515 28.5691 31.7832 29.0029 31.7832 29.453C31.7832 29.9031 31.9515 30.3369 32.2549 30.6692C32.5588 30.9702 32.9683 31.1402 33.3958 31.1429C33.8233 31.1456 34.235 30.9809 34.5426 30.6838V31.0563H35.2142V29.4494C35.2286 29.0188 35.0746 28.5995 34.785 28.2807ZM34.2273 30.2397C34.03 30.4371 33.7632 30.5493 33.4842 30.5523C33.3464 30.5582 33.2088 30.5353 33.0804 30.485C32.9519 30.4347 32.8354 30.3581 32.7382 30.2601C32.6385 30.1524 32.5613 30.0258 32.5112 29.8879C32.4611 29.7499 32.439 29.6033 32.4462 29.4567C32.4375 29.3103 32.4589 29.1638 32.5092 29.0261C32.5594 28.8884 32.6373 28.7625 32.7382 28.6561C32.834 28.5557 32.95 28.4767 33.0787 28.4246C33.2073 28.3725 33.3455 28.3483 33.4842 28.3537C33.6219 28.3523 33.7585 28.3783 33.8861 28.4302C34.0137 28.4821 34.1297 28.5589 34.2273 28.6561C34.4337 28.871 34.5471 29.1587 34.5426 29.4567C34.5451 29.7491 34.4317 30.0307 34.2273 30.2397Z" fill="#FF5000"/>
<path d="M37.3317 29.3968L39.0194 27.8351H38.1595L36.8164 29.0549H36.6149V26.3918H35.9434V31.0563H36.6149V29.7269H36.8179L38.288 31.0563H39.2048L37.3317 29.3968Z" fill="#FF5000"/>
<path d="M41.736 30.4266V26.719H41.0469V31.0563H43.9536V30.4266H41.736Z" fill="#FF5000"/>
<path d="M45.0558 26.5773C45.0173 26.5367 44.9701 26.5054 44.9177 26.4857C44.8654 26.466 44.8093 26.4583 44.7536 26.4634C44.6964 26.4596 44.6392 26.4677 44.5854 26.4874C44.5316 26.507 44.4825 26.5376 44.4412 26.5773C44.3648 26.6586 44.3223 26.766 44.3223 26.8775C44.3223 26.9891 44.3648 27.0964 44.4412 27.1777C44.5279 27.2526 44.639 27.2932 44.7536 27.2917C44.8694 27.2929 44.9818 27.2525 45.0704 27.1777C45.1419 27.097 45.1823 26.9934 45.1843 26.8855C45.1859 26.828 45.1753 26.7707 45.1531 26.7176C45.131 26.6645 45.0978 26.6166 45.0558 26.5773ZM44.428 27.8351V31.0563H45.0981V27.8351H44.428Z" fill="#FF5000"/>
<path d="M48.1687 27.8424V29.759C48.1471 29.973 48.0469 30.1714 47.8875 30.3156C47.728 30.4598 47.5208 30.5397 47.3059 30.5397C47.0909 30.5397 46.8837 30.4598 46.7243 30.3156C46.5648 30.1714 46.4646 29.973 46.443 29.759V27.8424H45.7715V29.7094C45.7715 30.5041 46.4576 31.1469 47.3059 31.1469C48.1541 31.1469 48.8402 30.5041 48.8402 29.7094V27.8424H48.1687Z" fill="#FF5000"/>
</g>
<defs>
<clipPath id="clip0_567_18935">
<rect width="97" height="32" fill="white" transform="translate(8)"/>
</clipPath>
</defs>
</svg>
